<mxfile host="app.diagrams.net">
  <diagram id="distributed_fs" name="Architecture">
    <mxGraphModel dx="1422" dy="794" grid="1" gridSize="10" guides="1" tooltips="1" connect="1" arrows="1" fold="1" page="1" pageScale="1" pageWidth="827" pageHeight="1169" math="0" shadow="0">
      <root>
        <mxCell id="0"/>
        <mxCell id="1" parent="0"/>
        
        <!-- Client -->
        <mxCell id="2" value="Client (cli.py / client_api.py)" style="rounded=1;whiteSpace=wrap;html=1;fillColor=#dae8fc;strokeColor=#6c8ebf;" vertex="1" parent="1">
          <mxGeometry x="60" y="120" width="220" height="80" as="geometry"/>
        </mxCell>

        <!-- Controller -->
        <mxCell id="3" value="Controller (scheduler.py)" style="rounded=1;whiteSpace=wrap;html=1;fillColor=#ffe6cc;strokeColor=#d79b00;" vertex="1" parent="1">
          <mxGeometry x="320" y="120" width="220" height="80" as="geometry"/>
        </mxCell>

        <!-- Metadata Server -->
        <mxCell id="4" value="Metadata Server (FastAPI)" style="rounded=1;whiteSpace=wrap;html=1;fillColor=#d5e8d4;strokeColor=#82b366;" vertex="1" parent="1">
          <mxGeometry x="580" y="60" width="240" height="80" as="geometry"/>
        </mxCell>
        
        <!-- Database -->
        <mxCell id="5" value="MySQL Database" style="shape=cylinder3;whiteSpace=wrap;html=1;fillColor=#f8cecc;strokeColor=#b85450;" vertex="1" parent="1">
          <mxGeometry x="600" y="170" width="200" height="80" as="geometry"/>
        </mxCell>
        
        <!-- Storage Nodes -->
        <mxCell id="6" value="Storage Node #1 (9001)" style="rounded=1;whiteSpace=wrap;html=1;fillColor=#fff2cc;strokeColor=#d6b656;" vertex="1" parent="1">
          <mxGeometry x="320" y="280" width="200" height="60" as="geometry"/>
        </mxCell>
        
        <mxCell id="7" value="Storage Node #2 (9002)" style="rounded=1;whiteSpace=wrap;html=1;fillColor=#fff2cc;strokeColor=#d6b656;" vertex="1" parent="1">
          <mxGeometry x="540" y="280" width="200" height="60" as="geometry"/>
        </mxCell>
        
        <mxCell id="8" value="Storage Node #N" style="rounded=1;whiteSpace=wrap;html=1;fillColor=#fff2cc;strokeColor=#d6b656;" vertex="1" parent="1">
          <mxGeometry x="760" y="280" width="200" height="60" as="geometry"/>
        </mxCell>

        <!-- Arrows -->
        <mxCell id="10" style="endArrow=block;html=1;strokeColor=#000000;" edge="1" parent="1" source="2" target="3">
          <mxGeometry relative="1" as="geometry"/>
        </mxCell>
        <mxCell id="11" style="endArrow=block;html=1;strokeColor=#000000;" edge="1" parent="1" source="3" target="4">
          <mxGeometry relative="1" as="geometry"/>
        </mxCell>
        <mxCell id="12" style="endArrow=block;html=1;strokeColor=#000000;" edge="1" parent="1" source="4" target="5">
          <mxGeometry relative="1" as="geometry"/>
        </mxCell>
        <mxCell id="13" style="endArrow=block;html=1;strokeColor=#000000;" edge="1" parent="1" source="3" target="6">
          <mxGeometry relative="1" as="geometry"/>
        </mxCell>
        <mxCell id="14" style="endArrow=block;html=1;strokeColor=#000000;" edge="1" parent="1" source="3" target="7">
          <mxGeometry relative="1" as="geometry"/>
        </mxCell>
        <mxCell id="15" style="endArrow=block;html=1;strokeColor=#000000;" edge="1" parent="1" source="3" target="8">
          <mxGeometry relative="1" as="geometry"/>
        </mxCell>
        <mxCell id="16" style="endArrow=block;html=1;strokeColor=#000000;" edge="1" parent="1" source="2" target="6">
          <mxGeometry relative="1" as="geometry"/>
        </mxCell>
        <mxCell id="17" style="endArrow=block;html=1;strokeColor=#000000;" edge="1" parent="1" source="2" target="7">
          <mxGeometry relative="1" as="geometry"/>
        </mxCell>
        <mxCell id="18" style="endArrow=block;html=1;strokeColor=#000000;" edge="1" parent="1" source="2" target="8">
          <mxGeometry relative="1" as="geometry"/>
        </mxCell>
        
      </root>
    </mxGraphModel>
  </diagram>
</mxfile>
